<svg width="364" height="387" viewBox="0 0 364 387" fill="none" xmlns="http://www.w3.org/2000/svg">
<path d="M26.6321 15.224C25.5015 15.224 24.4988 14.984 23.6241 14.504C22.7601 14.024 22.0881 13.3467 21.6081 12.472C21.1281 11.5867 20.8881 10.5627 20.8881 9.4C20.8881 8.248 21.1335 7.23467 21.6241 6.36C22.1255 5.47467 22.8135 4.792 23.6881 4.312C24.5735 3.82133 25.5761 3.576 26.6961 3.576C27.7735 3.576 28.7388 3.79467 29.5921 4.232L29.3681 6.184C28.9095 5.98133 28.4668 5.82667 28.0401 5.72C27.6241 5.60267 27.1708 5.544 26.6801 5.544C25.5388 5.544 24.6588 5.896 24.0401 6.6C23.4321 7.304 23.1281 8.23733 23.1281 9.4C23.1281 10.5627 23.4268 11.496 24.0241 12.2C24.6321 12.904 25.5015 13.256 26.6321 13.256C27.1335 13.256 27.5921 13.2027 28.0081 13.096C28.4348 12.9893 28.8881 12.8293 29.3681 12.616L29.5921 14.568C28.6641 15.0053 27.6775 15.224 26.6321 15.224ZM34.4819 15.16C33.6392 15.16 32.9085 14.9733 32.2899 14.6C31.6712 14.2267 31.1965 13.7253 30.8659 13.096C30.5352 12.4667 30.3699 11.7733 30.3699 11.016C30.3699 10.2587 30.5352 9.56 30.8659 8.92C31.1965 8.28 31.6712 7.77333 32.2899 7.4C32.9085 7.02667 33.6392 6.84 34.4819 6.84C35.3245 6.84 36.0552 7.02667 36.6739 7.4C37.2925 7.77333 37.7672 8.28 38.0979 8.92C38.4285 9.56 38.5939 10.2587 38.5939 11.016C38.5939 11.7733 38.4285 12.4667 38.0979 13.096C37.7672 13.7253 37.2925 14.2267 36.6739 14.6C36.0552 14.9733 35.3245 15.16 34.4819 15.16ZM34.4819 13.528C35.1325 13.528 35.6392 13.2987 36.0019 12.84C36.3752 12.3813 36.5619 11.7733 36.5619 11.016C36.5619 10.248 36.3752 9.63467 36.0019 9.176C35.6392 8.70667 35.1325 8.472 34.4819 8.472C33.8312 8.472 33.3192 8.70667 32.9459 9.176C32.5832 9.63467 32.4019 10.248 32.4019 11.016C32.4019 11.7733 32.5832 12.3813 32.9459 12.84C33.3192 13.2987 33.8312 13.528 34.4819 13.528ZM48.9509 6.872C50.0175 6.872 50.8069 7.19733 51.3189 7.848C51.8415 8.488 52.1029 9.38933 52.1029 10.552V15H50.1189V10.696C50.1189 9.93867 50.0015 9.384 49.7669 9.032C49.5322 8.68 49.1482 8.504 48.6149 8.504C48.0922 8.504 47.6975 8.68533 47.4309 9.048C47.1642 9.4 47.0309 9.90133 47.0309 10.552V15H45.0469V10.696C45.0469 9.93867 44.9242 9.384 44.6789 9.032C44.4335 8.68 44.0442 8.504 43.5109 8.504C42.8815 8.504 42.3642 8.73333 41.9589 9.192V15H39.9749V7H41.6709L41.7349 7.64C42.4602 7.128 43.2442 6.872 44.0869 6.872C45.1109 6.872 45.8735 7.24 46.3749 7.976C46.6522 7.624 47.0149 7.352 47.4629 7.16C47.9109 6.968 48.4069 6.872 48.9509 6.872ZM62.8571 6.872C63.9238 6.872 64.7131 7.19733 65.2251 7.848C65.7478 8.488 66.0091 9.38933 66.0091 10.552V15H64.0251V10.696C64.0251 9.93867 63.9078 9.384 63.6731 9.032C63.4385 8.68 63.0545 8.504 62.5211 8.504C61.9985 8.504 61.6038 8.68533 61.3371 9.048C61.0705 9.4 60.9371 9.90133 60.9371 10.552V15H58.9531V10.696C58.9531 9.93867 58.8305 9.384 58.5851 9.032C58.3398 8.68 57.9505 8.504 57.4171 8.504C56.7878 8.504 56.2705 8.73333 55.8651 9.192V15H53.8811V7H55.5771L55.6411 7.64C56.3665 7.128 57.1505 6.872 57.9931 6.872C59.0171 6.872 59.7798 7.24 60.2811 7.976C60.5585 7.624 60.9211 7.352 61.3691 7.16C61.8171 6.968 62.3131 6.872 62.8571 6.872ZM71.4194 15.16C70.5767 15.16 69.846 14.9733 69.2274 14.6C68.6087 14.2267 68.134 13.7253 67.8034 13.096C67.4727 12.4667 67.3074 11.7733 67.3074 11.016C67.3074 10.2587 67.4727 9.56 67.8034 8.92C68.134 8.28 68.6087 7.77333 69.2274 7.4C69.846 7.02667 70.5767 6.84 71.4194 6.84C72.262 6.84 72.9927 7.02667 73.6114 7.4C74.23 7.77333 74.7047 8.28 75.0354 8.92C75.366 9.56 75.5314 10.2587 75.5314 11.016C75.5314 11.7733 75.366 12.4667 75.0354 13.096C74.7047 13.7253 74.23 14.2267 73.6114 14.6C72.9927 14.9733 72.262 15.16 71.4194 15.16ZM71.4194 13.528C72.07 13.528 72.5767 13.2987 72.9394 12.84C73.3127 12.3813 73.4994 11.7733 73.4994 11.016C73.4994 10.248 73.3127 9.63467 72.9394 9.176C72.5767 8.70667 72.07 8.472 71.4194 8.472C70.7687 8.472 70.2567 8.70667 69.8834 9.176C69.5207 9.63467 69.3394 10.248 69.3394 11.016C69.3394 11.7733 69.5207 12.3813 69.8834 12.84C70.2567 13.2987 70.7687 13.528 71.4194 13.528ZM80.9444 6.872C81.9364 6.872 82.6884 7.20267 83.2004 7.864C83.7124 8.52533 83.9684 9.416 83.9684 10.536V15H81.9844V10.696C81.9844 9.94933 81.8564 9.4 81.6004 9.048C81.355 8.68533 80.955 8.504 80.4004 8.504C79.7924 8.504 79.291 8.73333 78.8964 9.192V15H76.9124V7H78.7684L78.8004 7.56C79.4724 7.10133 80.187 6.872 80.9444 6.872ZM93.5103 6.872C94.2676 6.872 94.9183 7.05867 95.4623 7.432C96.0063 7.80533 96.4169 8.30667 96.6943 8.936C96.9716 9.56533 97.1103 10.2587 97.1103 11.016C97.1103 11.7733 96.9716 12.4667 96.6943 13.096C96.4169 13.7253 96.0063 14.2267 95.4623 14.6C94.9183 14.9733 94.2676 15.16 93.5103 15.16C93.0303 15.16 92.6196 15.1067 92.2783 15C91.9476 14.904 91.6276 14.744 91.3183 14.52V18.872H89.3343V7H90.9343L91.1423 7.736C91.4836 7.448 91.8409 7.23467 92.2143 7.096C92.5876 6.94667 93.0196 6.872 93.5103 6.872ZM93.2063 13.528C93.7929 13.528 94.2516 13.2987 94.5823 12.84C94.9129 12.3813 95.0783 11.7733 95.0783 11.016C95.0783 10.2587 94.9129 9.65067 94.5823 9.192C94.2516 8.73333 93.7929 8.504 93.2063 8.504C92.5449 8.504 92.0489 8.728 91.7183 9.176C91.3876 9.624 91.2223 10.2373 91.2223 11.016C91.2223 11.7947 91.3876 12.408 91.7183 12.856C92.0489 13.304 92.5449 13.528 93.2063 13.528ZM98.4905 7H100.347L100.395 7.848C100.629 7.58133 100.928 7.34667 101.291 7.144C101.664 6.94133 102.053 6.84 102.459 6.84C102.587 6.84 102.704 6.85067 102.811 6.872L102.667 8.824C102.464 8.77067 102.235 8.744 101.979 8.744C101.648 8.744 101.344 8.824 101.067 8.984C100.789 9.13333 100.592 9.32 100.475 9.544V15H98.4905V7ZM103.772 3.8H105.756V5.784H103.772V3.8ZM103.772 7H105.756V15H103.772V7ZM111.328 15.16C110.442 15.16 109.68 14.9787 109.039 14.616C108.41 14.2427 107.936 13.7413 107.616 13.112C107.296 12.4827 107.136 11.784 107.136 11.016C107.136 10.2373 107.296 9.53333 107.616 8.904C107.936 8.264 108.416 7.76267 109.056 7.4C109.696 7.02667 110.474 6.84 111.391 6.84C112.213 6.84 112.928 7.01067 113.536 7.352L113.376 8.952C112.8 8.65333 112.202 8.504 111.584 8.504C110.826 8.504 110.234 8.73333 109.808 9.192C109.381 9.65067 109.168 10.2587 109.168 11.016C109.168 11.7413 109.386 12.344 109.824 12.824C110.261 13.2933 110.842 13.528 111.568 13.528C112.176 13.528 112.784 13.352 113.392 13L113.568 14.68C113.28 14.8293 112.938 14.9467 112.544 15.032C112.16 15.1173 111.754 15.16 111.328 15.16ZM118.69 15.16C117.762 15.16 116.968 14.9733 116.306 14.6C115.656 14.216 115.165 13.7093 114.834 13.08C114.514 12.44 114.354 11.7307 114.354 10.952C114.354 10.2053 114.509 9.52267 114.818 8.904C115.128 8.28533 115.576 7.79467 116.162 7.432C116.749 7.05867 117.448 6.872 118.258 6.872C119.005 6.872 119.634 7.02667 120.146 7.336C120.669 7.64533 121.058 8.06133 121.314 8.584C121.581 9.10667 121.714 9.69333 121.714 10.344C121.714 10.664 121.672 11.0267 121.586 11.432H116.418C116.525 12.136 116.802 12.664 117.25 13.016C117.698 13.3573 118.237 13.528 118.866 13.528C119.73 13.528 120.53 13.3093 121.266 12.872L121.362 14.552C121.021 14.7333 120.621 14.8827 120.162 15C119.714 15.1067 119.224 15.16 118.69 15.16ZM119.698 10.088C119.698 9.672 119.581 9.304 119.346 8.984C119.112 8.664 118.749 8.504 118.258 8.504C117.768 8.504 117.373 8.648 117.074 8.936C116.776 9.224 116.573 9.608 116.466 10.088H119.698ZM126.662 7H128.518L128.566 7.848C128.801 7.58133 129.1 7.34667 129.462 7.144C129.836 6.94133 130.225 6.84 130.63 6.84C130.758 6.84 130.876 6.85067 130.982 6.872L130.838 8.824C130.636 8.77067 130.406 8.744 130.15 8.744C129.82 8.744 129.516 8.824 129.238 8.984C128.961 9.13333 128.764 9.32 128.646 9.544V15H126.662V7ZM133.578 15.16C132.917 15.16 132.362 14.9467 131.914 14.52C131.477 14.0827 131.258 13.496 131.258 12.76C131.258 12.0667 131.509 11.512 132.01 11.096C132.511 10.6693 133.103 10.3707 133.786 10.2C134.469 10.0187 135.125 9.91733 135.754 9.896C135.733 9.42667 135.61 9.09067 135.386 8.888C135.173 8.68533 134.815 8.584 134.314 8.584C133.962 8.584 133.615 8.632 133.274 8.728C132.943 8.824 132.559 8.97867 132.122 9.192L131.946 7.576C132.917 7.10667 133.887 6.872 134.858 6.872C135.797 6.872 136.511 7.128 137.002 7.64C137.503 8.152 137.754 8.968 137.754 10.088V12.248C137.754 12.6533 137.77 12.9467 137.802 13.128C137.845 13.2987 137.909 13.4107 137.994 13.464C138.09 13.5067 138.245 13.528 138.458 13.528H138.714L138.538 15.16H137.818C137.381 15.16 137.013 15.08 136.714 14.92C136.415 14.7493 136.186 14.52 136.026 14.232C135.77 14.52 135.418 14.7493 134.97 14.92C134.533 15.08 134.069 15.16 133.578 15.16ZM134.41 13.64C134.613 13.64 134.842 13.592 135.098 13.496C135.354 13.3893 135.578 13.2453 135.77 13.064V11.24C135.13 11.272 134.565 11.4107 134.074 11.656C133.583 11.9013 133.338 12.2427 133.338 12.68C133.338 13.0107 133.423 13.256 133.594 13.416C133.765 13.5653 134.037 13.64 134.41 13.64ZM143.851 6.872C144.843 6.872 145.595 7.20267 146.107 7.864C146.619 8.52533 146.875 9.416 146.875 10.536V15H144.891V10.696C144.891 9.94933 144.763 9.4 144.507 9.048C144.261 8.68533 143.861 8.504 143.307 8.504C142.699 8.504 142.197 8.73333 141.803 9.192V15H139.819V7H141.675L141.707 7.56C142.379 7.10133 143.093 6.872 143.851 6.872ZM151.815 19.032C150.684 19.032 149.783 18.824 149.111 18.408C148.439 18.0027 148.103 17.448 148.103 16.744C148.103 15.976 148.535 15.3467 149.399 14.856C148.929 14.568 148.695 14.1893 148.695 13.72C148.695 13.4747 148.764 13.256 148.903 13.064C149.052 12.872 149.249 12.7173 149.495 12.6C149.089 12.312 148.78 11.944 148.567 11.496C148.364 11.048 148.263 10.5573 148.263 10.024C148.263 9.43733 148.391 8.904 148.647 8.424C148.903 7.93333 149.276 7.54933 149.767 7.272C150.257 6.984 150.839 6.84 151.511 6.84C152.215 6.84 152.823 7.01067 153.335 7.352C153.516 7.256 153.756 7.176 154.055 7.112C154.364 7.03733 154.695 7 155.047 7H155.559L155.431 8.248H154.711C154.529 8.248 154.38 8.25333 154.263 8.264C154.583 8.75467 154.743 9.34133 154.743 10.024C154.743 10.6107 154.615 11.1493 154.359 11.64C154.113 12.12 153.745 12.504 153.255 12.792C152.764 13.0693 152.183 13.208 151.511 13.208C151.265 13.208 150.983 13.1707 150.663 13.096C150.545 13.1493 150.487 13.2347 150.487 13.352C150.487 13.4907 150.567 13.6027 150.727 13.688C150.897 13.7627 151.18 13.8267 151.575 13.88L152.951 14.056C154.785 14.3013 155.703 15.0747 155.703 16.376C155.703 17.1867 155.356 17.832 154.663 18.312C153.98 18.792 153.031 19.032 151.815 19.032ZM151.511 11.736C151.969 11.736 152.321 11.5867 152.567 11.288C152.823 10.9787 152.951 10.5573 152.951 10.024C152.951 9.49067 152.823 9.07467 152.567 8.776C152.321 8.46667 151.969 8.312 151.511 8.312C151.041 8.312 150.679 8.46667 150.423 8.776C150.177 9.07467 150.055 9.49067 150.055 10.024C150.055 10.5573 150.177 10.9787 150.423 11.288C150.679 11.5867 151.041 11.736 151.511 11.736ZM151.895 17.528C153.26 17.528 153.943 17.192 153.943 16.52C153.943 16.2213 153.825 15.9973 153.591 15.848C153.356 15.7093 152.967 15.5973 152.423 15.512L150.663 15.256C150.055 15.5013 149.751 15.8747 149.751 16.376C149.751 16.76 149.937 17.048 150.311 17.24C150.684 17.432 151.212 17.528 151.895 17.528ZM160.456 15.16C159.528 15.16 158.733 14.9733 158.072 14.6C157.421 14.216 156.931 13.7093 156.6 13.08C156.28 12.44 156.12 11.7307 156.12 10.952C156.12 10.2053 156.275 9.52267 156.584 8.904C156.893 8.28533 157.341 7.79467 157.928 7.432C158.515 7.05867 159.213 6.872 160.024 6.872C160.771 6.872 161.4 7.02667 161.912 7.336C162.435 7.64533 162.824 8.06133 163.08 8.584C163.347 9.10667 163.48 9.69333 163.48 10.344C163.48 10.664 163.437 11.0267 163.352 11.432H158.184C158.291 12.136 158.568 12.664 159.016 13.016C159.464 13.3573 160.003 13.528 160.632 13.528C161.496 13.528 162.296 13.3093 163.032 12.872L163.128 14.552C162.787 14.7333 162.387 14.8827 161.928 15C161.48 15.1067 160.989 15.16 160.456 15.16ZM161.464 10.088C161.464 9.672 161.347 9.304 161.112 8.984C160.877 8.664 160.515 8.504 160.024 8.504C159.533 8.504 159.139 8.648 158.84 8.936C158.541 9.224 158.339 9.608 158.232 10.088H161.464ZM167.106 15.16C166.594 15.16 166.125 15.112 165.698 15.016C165.282 14.92 164.85 14.7707 164.402 14.568L164.578 12.872C165.026 13.1387 165.442 13.3413 165.826 13.48C166.221 13.608 166.626 13.672 167.042 13.672C167.853 13.672 168.258 13.4053 168.258 12.872C168.258 12.584 168.152 12.3653 167.938 12.216C167.725 12.056 167.341 11.8693 166.786 11.656C165.997 11.368 165.416 11.0427 165.042 10.68C164.669 10.3067 164.482 9.80533 164.482 9.176C164.482 8.48267 164.749 7.92267 165.282 7.496C165.816 7.05867 166.536 6.84 167.442 6.84C168.349 6.84 169.176 7.048 169.922 7.464L169.746 9.16C169.341 8.88267 168.957 8.66933 168.594 8.52C168.242 8.37067 167.869 8.296 167.474 8.296C167.133 8.296 166.866 8.36533 166.674 8.504C166.493 8.64267 166.402 8.84 166.402 9.096C166.402 9.29867 166.456 9.464 166.562 9.592C166.68 9.72 166.84 9.83733 167.042 9.944C167.245 10.04 167.581 10.1787 168.05 10.36C168.829 10.6587 169.389 10.9893 169.73 11.352C170.072 11.704 170.242 12.1787 170.242 12.776C170.242 13.5333 169.97 14.12 169.426 14.536C168.882 14.952 168.109 15.16 167.106 15.16Z" fill="black"/>
<g filter="url(#filter0_dd)">
<rect x="21" y="44" width="323" height="323" rx="8" fill="white"/>
<rect x="21.25" y="44.25" width="322.5" height="322.5" rx="7.75" stroke="url(#paint0_linear)" stroke-width="0.5"/>
</g>
<path d="M64.5 70V321.5H316" stroke="#C8CCF8"/>
<path d="M139.717 350.6H142.789C143.685 350.6 144.389 350.816 144.901 351.248C145.421 351.672 145.681 352.304 145.681 353.144C145.681 353.728 145.557 354.208 145.309 354.584C145.061 354.952 144.709 355.248 144.253 355.472L146.149 359H144.433L142.813 355.88H142.753H141.253V359H139.717V350.6ZM142.381 354.596C143.509 354.596 144.073 354.14 144.073 353.228C144.073 352.788 143.945 352.456 143.689 352.232C143.433 352 143.017 351.884 142.441 351.884H141.253V354.596H142.381ZM146.919 350.6H148.407V352.088H146.919V350.6ZM146.919 353H148.407V359H146.919V353ZM155.273 350V359H153.869L153.845 358.616C153.613 358.784 153.369 358.912 153.113 359C152.865 359.08 152.569 359.12 152.225 359.12C151.641 359.12 151.137 358.98 150.713 358.7C150.297 358.42 149.981 358.044 149.765 357.572C149.549 357.1 149.441 356.58 149.441 356.012C149.441 355.444 149.549 354.924 149.765 354.452C149.981 353.98 150.297 353.604 150.713 353.324C151.137 353.044 151.641 352.904 152.225 352.904C152.809 352.904 153.329 353.064 153.785 353.384V350H155.273ZM152.441 357.896C152.913 357.896 153.265 357.728 153.497 357.392C153.737 357.056 153.857 356.596 153.857 356.012C153.857 355.428 153.737 354.968 153.497 354.632C153.265 354.296 152.913 354.128 152.441 354.128C151.977 354.128 151.613 354.3 151.349 354.644C151.093 354.988 150.965 355.444 150.965 356.012C150.965 356.58 151.093 357.036 151.349 357.38C151.613 357.724 151.977 357.896 152.441 357.896ZM159.549 359.12C158.853 359.12 158.257 358.98 157.761 358.7C157.273 358.412 156.905 358.032 156.657 357.56C156.417 357.08 156.297 356.548 156.297 355.964C156.297 355.404 156.413 354.892 156.645 354.428C156.877 353.964 157.213 353.596 157.653 353.324C158.093 353.044 158.617 352.904 159.225 352.904C159.785 352.904 160.257 353.02 160.641 353.252C161.033 353.484 161.325 353.796 161.517 354.188C161.717 354.58 161.817 355.02 161.817 355.508C161.817 355.748 161.785 356.02 161.721 356.324H157.845C157.925 356.852 158.133 357.248 158.469 357.512C158.805 357.768 159.209 357.896 159.681 357.896C160.329 357.896 160.929 357.732 161.481 357.404L161.553 358.664C161.297 358.8 160.997 358.912 160.653 359C160.317 359.08 159.949 359.12 159.549 359.12ZM160.305 355.316C160.305 355.004 160.217 354.728 160.041 354.488C159.865 354.248 159.593 354.128 159.225 354.128C158.857 354.128 158.561 354.236 158.337 354.452C158.113 354.668 157.961 354.956 157.881 355.316H160.305ZM165.756 350.6H168.744C170.736 350.6 171.732 351.504 171.732 353.312C171.732 354.248 171.48 354.944 170.976 355.4C170.472 355.856 169.74 356.084 168.78 356.084H167.292V359H165.756V350.6ZM168.6 354.8C169.128 354.8 169.52 354.68 169.776 354.44C170.04 354.2 170.172 353.832 170.172 353.336C170.172 352.84 170.04 352.476 169.776 352.244C169.512 352.004 169.108 351.884 168.564 351.884H167.292V354.8H168.6ZM172.583 353H173.975L174.011 353.636C174.187 353.436 174.411 353.26 174.683 353.108C174.963 352.956 175.255 352.88 175.559 352.88C175.655 352.88 175.743 352.888 175.823 352.904L175.715 354.368C175.563 354.328 175.391 354.308 175.199 354.308C174.951 354.308 174.723 354.368 174.515 354.488C174.307 354.6 174.159 354.74 174.071 354.908V359H172.583V353ZM176.544 350.6H178.032V352.088H176.544V350.6ZM176.544 353H178.032V359H176.544V353ZM182.21 359.12C181.546 359.12 180.974 358.984 180.494 358.712C180.022 358.432 179.666 358.056 179.426 357.584C179.186 357.112 179.066 356.588 179.066 356.012C179.066 355.428 179.186 354.9 179.426 354.428C179.666 353.948 180.026 353.572 180.506 353.3C180.986 353.02 181.57 352.88 182.258 352.88C182.874 352.88 183.41 353.008 183.866 353.264L183.746 354.464C183.314 354.24 182.866 354.128 182.402 354.128C181.834 354.128 181.39 354.3 181.07 354.644C180.75 354.988 180.59 355.444 180.59 356.012C180.59 356.556 180.754 357.008 181.082 357.368C181.41 357.72 181.846 357.896 182.39 357.896C182.846 357.896 183.302 357.764 183.758 357.5L183.89 358.76C183.674 358.872 183.418 358.96 183.122 359.024C182.834 359.088 182.53 359.12 182.21 359.12ZM187.733 359.12C187.037 359.12 186.441 358.98 185.945 358.7C185.457 358.412 185.089 358.032 184.841 357.56C184.601 357.08 184.481 356.548 184.481 355.964C184.481 355.404 184.597 354.892 184.829 354.428C185.061 353.964 185.397 353.596 185.837 353.324C186.277 353.044 186.801 352.904 187.409 352.904C187.969 352.904 188.441 353.02 188.825 353.252C189.217 353.484 189.509 353.796 189.701 354.188C189.901 354.58 190.001 355.02 190.001 355.508C190.001 355.748 189.969 356.02 189.905 356.324H186.029C186.109 356.852 186.317 357.248 186.653 357.512C186.989 357.768 187.393 357.896 187.865 357.896C188.513 357.896 189.113 357.732 189.665 357.404L189.737 358.664C189.481 358.8 189.181 358.912 188.837 359C188.501 359.08 188.133 359.12 187.733 359.12ZM188.489 355.316C188.489 355.004 188.401 354.728 188.225 354.488C188.049 354.248 187.777 354.128 187.409 354.128C187.041 354.128 186.745 354.236 186.521 354.452C186.297 354.668 186.145 354.956 186.065 355.316H188.489ZM193.94 350.6H197.012C197.908 350.6 198.612 350.816 199.124 351.248C199.644 351.672 199.904 352.304 199.904 353.144C199.904 353.728 199.78 354.208 199.532 354.584C199.284 354.952 198.932 355.248 198.476 355.472L200.372 359H198.656L197.036 355.88H196.976H195.476V359H193.94V350.6ZM196.604 354.596C197.732 354.596 198.296 354.14 198.296 353.228C198.296 352.788 198.168 352.456 197.912 352.232C197.656 352 197.24 351.884 196.664 351.884H195.476V354.596H196.604ZM202.461 359.12C201.965 359.12 201.549 358.96 201.213 358.64C200.885 358.312 200.721 357.872 200.721 357.32C200.721 356.8 200.909 356.384 201.285 356.072C201.661 355.752 202.105 355.528 202.617 355.4C203.129 355.264 203.621 355.188 204.093 355.172C204.077 354.82 203.985 354.568 203.817 354.416C203.657 354.264 203.389 354.188 203.013 354.188C202.749 354.188 202.489 354.224 202.233 354.296C201.985 354.368 201.697 354.484 201.369 354.644L201.237 353.432C201.965 353.08 202.693 352.904 203.421 352.904C204.125 352.904 204.661 353.096 205.029 353.48C205.405 353.864 205.593 354.476 205.593 355.316V356.936C205.593 357.24 205.605 357.46 205.629 357.596C205.661 357.724 205.709 357.808 205.773 357.848C205.845 357.88 205.961 357.896 206.121 357.896H206.313L206.181 359.12H205.641C205.313 359.12 205.037 359.06 204.813 358.94C204.589 358.812 204.417 358.64 204.297 358.424C204.105 358.64 203.841 358.812 203.505 358.94C203.177 359.06 202.829 359.12 202.461 359.12ZM203.085 357.98C203.237 357.98 203.409 357.944 203.601 357.872C203.793 357.792 203.961 357.684 204.105 357.548V356.18C203.625 356.204 203.201 356.308 202.833 356.492C202.465 356.676 202.281 356.932 202.281 357.26C202.281 357.508 202.345 357.692 202.473 357.812C202.601 357.924 202.805 357.98 203.085 357.98ZM210.165 352.904C210.909 352.904 211.473 353.152 211.857 353.648C212.241 354.144 212.433 354.812 212.433 355.652V359H210.945V355.772C210.945 355.212 210.849 354.8 210.657 354.536C210.473 354.264 210.173 354.128 209.757 354.128C209.301 354.128 208.925 354.3 208.629 354.644V359H207.141V353H208.533L208.557 353.42C209.061 353.076 209.597 352.904 210.165 352.904ZM216.138 362.024C215.29 362.024 214.614 361.868 214.11 361.556C213.606 361.252 213.354 360.836 213.354 360.308C213.354 359.732 213.678 359.26 214.326 358.892C213.974 358.676 213.798 358.392 213.798 358.04C213.798 357.856 213.85 357.692 213.954 357.548C214.066 357.404 214.214 357.288 214.398 357.2C214.094 356.984 213.862 356.708 213.702 356.372C213.55 356.036 213.474 355.668 213.474 355.268C213.474 354.828 213.57 354.428 213.762 354.068C213.954 353.7 214.234 353.412 214.602 353.204C214.97 352.988 215.406 352.88 215.91 352.88C216.438 352.88 216.894 353.008 217.278 353.264C217.414 353.192 217.594 353.132 217.818 353.084C218.05 353.028 218.298 353 218.562 353H218.946L218.85 353.936H218.31C218.174 353.936 218.062 353.94 217.974 353.948C218.214 354.316 218.334 354.756 218.334 355.268C218.334 355.708 218.238 356.112 218.046 356.48C217.862 356.84 217.586 357.128 217.218 357.344C216.85 357.552 216.414 357.656 215.91 357.656C215.726 357.656 215.514 357.628 215.274 357.572C215.186 357.612 215.142 357.676 215.142 357.764C215.142 357.868 215.202 357.952 215.322 358.016C215.45 358.072 215.662 358.12 215.958 358.16L216.99 358.292C218.366 358.476 219.054 359.056 219.054 360.032C219.054 360.64 218.794 361.124 218.274 361.484C217.762 361.844 217.05 362.024 216.138 362.024ZM215.91 356.552C216.254 356.552 216.518 356.44 216.702 356.216C216.894 355.984 216.99 355.668 216.99 355.268C216.99 354.868 216.894 354.556 216.702 354.332C216.518 354.1 216.254 353.984 215.91 353.984C215.558 353.984 215.286 354.1 215.094 354.332C214.91 354.556 214.818 354.868 214.818 355.268C214.818 355.668 214.91 355.984 215.094 356.216C215.286 356.44 215.558 356.552 215.91 356.552ZM216.198 360.896C217.222 360.896 217.734 360.644 217.734 360.14C217.734 359.916 217.646 359.748 217.47 359.636C217.294 359.532 217.002 359.448 216.594 359.384L215.274 359.192C214.818 359.376 214.59 359.656 214.59 360.032C214.59 360.32 214.73 360.536 215.01 360.68C215.29 360.824 215.686 360.896 216.198 360.896ZM222.619 359.12C221.923 359.12 221.327 358.98 220.831 358.7C220.343 358.412 219.975 358.032 219.727 357.56C219.487 357.08 219.367 356.548 219.367 355.964C219.367 355.404 219.483 354.892 219.715 354.428C219.947 353.964 220.283 353.596 220.723 353.324C221.163 353.044 221.687 352.904 222.295 352.904C222.855 352.904 223.327 353.02 223.711 353.252C224.103 353.484 224.395 353.796 224.587 354.188C224.787 354.58 224.887 355.02 224.887 355.508C224.887 355.748 224.855 356.02 224.791 356.324H220.915C220.995 356.852 221.203 357.248 221.539 357.512C221.875 357.768 222.279 357.896 222.751 357.896C223.399 357.896 223.999 357.732 224.551 357.404L224.623 358.664C224.367 358.8 224.067 358.912 223.723 359C223.387 359.08 223.019 359.12 222.619 359.12ZM223.375 355.316C223.375 355.004 223.287 354.728 223.111 354.488C222.935 354.248 222.663 354.128 222.295 354.128C221.927 354.128 221.631 354.236 221.407 354.452C221.183 354.668 221.031 354.956 220.951 355.316H223.375Z" fill="black"/>
<path d="M105.777 205.772C105.441 205.996 105.089 206.14 104.721 206.204L104.589 204.908C104.853 204.852 105.149 204.692 105.477 204.428C105.805 204.156 106.025 203.88 106.137 203.6H107.313V212H105.777V205.772ZM112.715 212.168C112.011 212.168 111.391 211.984 110.855 211.616C110.327 211.248 109.915 210.728 109.619 210.056C109.323 209.384 109.175 208.608 109.175 207.728C109.175 206.888 109.323 206.144 109.619 205.496C109.915 204.84 110.331 204.332 110.867 203.972C111.403 203.612 112.019 203.432 112.715 203.432C113.419 203.432 114.039 203.616 114.575 203.984C115.111 204.344 115.523 204.848 115.811 205.496C116.107 206.144 116.255 206.888 116.255 207.728C116.255 208.608 116.107 209.384 115.811 210.056C115.523 210.728 115.111 211.248 114.575 211.616C114.039 211.984 113.419 212.168 112.715 212.168ZM112.715 210.788C113.323 210.788 113.807 210.536 114.167 210.032C114.535 209.528 114.719 208.76 114.719 207.728C114.719 206.768 114.535 206.04 114.167 205.544C113.799 205.04 113.315 204.788 112.715 204.788C112.115 204.788 111.631 205.04 111.263 205.544C110.895 206.04 110.711 206.768 110.711 207.728C110.711 208.752 110.891 209.52 111.251 210.032C111.619 210.536 112.107 210.788 112.715 210.788Z" fill="black"/>
<path d="M175.183 226.428C175.583 226.644 175.895 226.94 176.119 227.316C176.343 227.692 176.455 228.116 176.455 228.588C176.455 229.092 176.335 229.54 176.095 229.932C175.855 230.324 175.511 230.628 175.063 230.844C174.615 231.06 174.095 231.168 173.503 231.168C172.903 231.168 172.379 231.06 171.931 230.844C171.491 230.628 171.151 230.324 170.911 229.932C170.671 229.54 170.551 229.092 170.551 228.588C170.551 228.108 170.663 227.684 170.887 227.316C171.119 226.94 171.439 226.644 171.847 226.428C171.559 226.228 171.335 225.98 171.175 225.684C171.015 225.38 170.935 225.052 170.935 224.7C170.935 224.308 171.027 223.94 171.211 223.596C171.395 223.252 171.679 222.972 172.063 222.756C172.447 222.54 172.927 222.432 173.503 222.432C174.079 222.432 174.555 222.54 174.931 222.756C175.307 222.972 175.583 223.252 175.759 223.596C175.935 223.94 176.023 224.308 176.023 224.7C176.023 225.06 175.951 225.388 175.807 225.684C175.663 225.98 175.455 226.228 175.183 226.428ZM173.503 223.632C173.119 223.632 172.819 223.732 172.603 223.932C172.387 224.124 172.279 224.384 172.279 224.712C172.279 225.024 172.387 225.284 172.603 225.492C172.827 225.7 173.127 225.804 173.503 225.804C173.879 225.804 174.167 225.7 174.367 225.492C174.575 225.284 174.679 225.024 174.679 224.712C174.679 224.384 174.575 224.124 174.367 223.932C174.167 223.732 173.879 223.632 173.503 223.632ZM173.503 229.848C173.983 229.848 174.359 229.728 174.631 229.488C174.903 229.24 175.039 228.908 175.039 228.492C175.039 228.1 174.899 227.78 174.619 227.532C174.347 227.284 173.975 227.16 173.503 227.16C173.031 227.16 172.655 227.284 172.375 227.532C172.103 227.78 171.967 228.1 171.967 228.492C171.967 228.908 172.103 229.24 172.375 229.488C172.647 229.728 173.023 229.848 173.503 229.848Z" fill="black"/>
<path d="M232.287 172.772C231.951 172.996 231.599 173.14 231.231 173.204L231.099 171.908C231.363 171.852 231.659 171.692 231.987 171.428C232.315 171.156 232.535 170.88 232.647 170.6H233.823V179H232.287V172.772ZM241.816 175.832V177.08H240.736V179H239.26V177.08H235.072L239.692 170.6H240.736V175.832H241.816ZM239.26 175.832V173.252L237.448 175.832H239.26Z" fill="black"/>
<path d="M35.008 219.085L35.008 222.145L37 222.841L37 224.329L28.6 221.341L28.6 219.889L37 216.901L37 218.389L35.008 219.085ZM33.664 219.565L30.664 220.609L33.664 221.665L33.664 219.565ZM30.904 209.437C30.904 208.637 31.148 208.045 31.636 207.661C32.116 207.269 32.792 207.073 33.664 207.073L37 207.073L37 208.561L33.772 208.561C33.204 208.561 32.788 208.649 32.524 208.825C32.26 209.001 32.128 209.289 32.128 209.689C32.128 210.081 32.264 210.377 32.536 210.577C32.8 210.777 33.176 210.877 33.664 210.877L37 210.877L37 212.365L33.772 212.365C33.204 212.365 32.788 212.457 32.524 212.641C32.26 212.825 32.128 213.117 32.128 213.517C32.128 213.989 32.3 214.377 32.644 214.681L37 214.681L37 216.169L31 216.169L31 214.897L31.48 214.849C31.096 214.305 30.904 213.717 30.904 213.085C30.904 212.317 31.18 211.745 31.732 211.369C31.468 211.161 31.264 210.889 31.12 210.553C30.976 210.217 30.904 209.845 30.904 209.437ZM37.12 203.016C37.12 203.648 36.98 204.196 36.7 204.66C36.42 205.124 36.044 205.48 35.572 205.728C35.1 205.976 34.58 206.1 34.012 206.1C33.444 206.1 32.92 205.976 32.44 205.728C31.96 205.48 31.58 205.124 31.3 204.66C31.02 204.196 30.88 203.648 30.88 203.016C30.88 202.384 31.02 201.836 31.3 201.372C31.58 200.908 31.96 200.552 32.44 200.304C32.92 200.056 33.444 199.932 34.012 199.932C34.58 199.932 35.1 200.056 35.572 200.304C36.044 200.552 36.42 200.908 36.7 201.372C36.98 201.836 37.12 202.384 37.12 203.016ZM35.896 203.016C35.896 202.528 35.724 202.148 35.38 201.876C35.036 201.596 34.58 201.456 34.012 201.456C33.436 201.456 32.976 201.596 32.632 201.876C32.28 202.148 32.104 202.528 32.104 203.016C32.104 203.504 32.28 203.888 32.632 204.168C32.976 204.44 33.436 204.576 34.012 204.576C34.58 204.576 35.036 204.44 35.38 204.168C35.724 203.888 35.896 203.504 35.896 203.016ZM31 193.664L37 193.664L37 195.056L36.64 195.08C36.776 195.264 36.892 195.476 36.988 195.716C37.076 195.956 37.12 196.188 37.12 196.412C37.12 197.3 36.864 197.948 36.352 198.356C35.84 198.756 35.132 198.956 34.228 198.956L31 198.956L31 197.468L34.228 197.468C34.788 197.468 35.204 197.376 35.476 197.192C35.74 197 35.872 196.696 35.872 196.28C35.872 195.816 35.704 195.44 35.368 195.152L31 195.152L31 193.664ZM30.904 189.251C30.904 188.507 31.152 187.943 31.648 187.559C32.144 187.175 32.812 186.983 33.652 186.983L37 186.983L37 188.471L33.772 188.471C33.212 188.471 32.8 188.567 32.536 188.759C32.264 188.943 32.128 189.243 32.128 189.659C32.128 190.115 32.3 190.491 32.644 190.787L37 190.787L37 192.275L31 192.275L31 190.883L31.42 190.859C31.076 190.355 30.904 189.819 30.904 189.251ZM37.12 183.768C37.12 184.296 36.968 184.696 36.664 184.968C36.352 185.24 35.98 185.376 35.548 185.376L32.224 185.376L32.224 186.228L31 186.096L31 185.376L29.68 185.376L29.524 183.888L31 183.888L31 182.568L32.224 182.568L32.224 183.888L34.936 183.888C35.256 183.888 35.48 183.872 35.608 183.84C35.728 183.8 35.808 183.724 35.848 183.612C35.88 183.492 35.896 183.28 35.896 182.976L35.896 182.568L37.12 182.7L37.12 183.768ZM37.12 176.18C37.12 176.812 36.98 177.36 36.7 177.824C36.42 178.288 36.044 178.644 35.572 178.892C35.1 179.14 34.58 179.264 34.012 179.264C33.444 179.264 32.92 179.14 32.44 178.892C31.96 178.644 31.58 178.288 31.3 177.824C31.02 177.36 30.88 176.812 30.88 176.18C30.88 175.548 31.02 175 31.3 174.536C31.58 174.072 31.96 173.716 32.44 173.468C32.92 173.22 33.444 173.096 34.012 173.096C34.58 173.096 35.1 173.22 35.572 173.468C36.044 173.716 36.42 174.072 36.7 174.536C36.98 175 37.12 175.548 37.12 176.18ZM35.896 176.18C35.896 175.692 35.724 175.312 35.38 175.04C35.036 174.76 34.58 174.62 34.012 174.62C33.436 174.62 32.976 174.76 32.632 175.04C32.28 175.312 32.104 175.692 32.104 176.18C32.104 176.668 32.28 177.052 32.632 177.332C32.976 177.604 33.436 177.74 34.012 177.74C34.58 177.74 35.036 177.604 35.38 177.332C35.724 177.052 35.896 176.668 35.896 176.18ZM32.224 171.77L32.224 172.622L31 172.49L31 171.77L29.728 171.77C29.192 171.77 28.772 171.614 28.468 171.302C28.156 170.982 28 170.53 28 169.946C28 169.618 28.036 169.294 28.108 168.974L29.308 169.106C29.268 169.242 29.248 169.398 29.248 169.574C29.248 170.046 29.496 170.282 29.992 170.282L31 170.282L31 168.962L32.224 168.962L32.224 170.282L37 170.282L37 171.77L32.224 171.77ZM28.6 165.129L28.6 162.057C28.6 161.161 28.816 160.457 29.248 159.945C29.672 159.425 30.304 159.165 31.144 159.165C31.728 159.165 32.208 159.289 32.584 159.537C32.952 159.785 33.248 160.137 33.472 160.593L37 158.697L37 160.413L33.88 162.033L33.88 162.093L33.88 163.593L37 163.593L37 165.129L28.6 165.129ZM32.596 162.465C32.596 161.337 32.14 160.773 31.228 160.773C30.788 160.773 30.456 160.901 30.232 161.157C30 161.413 29.884 161.829 29.884 162.405L29.884 163.593L32.596 163.593L32.596 162.465ZM28.6 157.927L28.6 156.439L30.088 156.439L30.088 157.927L28.6 157.927ZM31 157.927L31 156.439L37 156.439L37 157.927L31 157.927ZM28 149.572L37 149.572L37 150.976L36.616 151C36.784 151.232 36.912 151.476 37 151.732C37.08 151.98 37.12 152.276 37.12 152.62C37.12 153.204 36.98 153.708 36.7 154.132C36.42 154.548 36.044 154.864 35.572 155.08C35.1 155.296 34.58 155.404 34.012 155.404C33.444 155.404 32.924 155.296 32.452 155.08C31.98 154.864 31.604 154.548 31.324 154.132C31.044 153.708 30.904 153.204 30.904 152.62C30.904 152.036 31.064 151.516 31.384 151.06L28 151.06L28 149.572ZM35.896 152.404C35.896 151.932 35.728 151.58 35.392 151.348C35.056 151.108 34.596 150.988 34.012 150.988C33.428 150.988 32.968 151.108 32.632 151.348C32.296 151.58 32.128 151.932 32.128 152.404C32.128 152.868 32.3 153.232 32.644 153.496C32.988 153.752 33.444 153.88 34.012 153.88C34.58 153.88 35.036 153.752 35.38 153.496C35.724 153.232 35.896 152.868 35.896 152.404ZM37.12 145.297C37.12 145.993 36.98 146.589 36.7 147.085C36.412 147.573 36.032 147.941 35.56 148.189C35.08 148.429 34.548 148.549 33.964 148.549C33.404 148.549 32.892 148.433 32.428 148.201C31.964 147.969 31.596 147.633 31.324 147.193C31.044 146.753 30.904 146.229 30.904 145.621C30.904 145.061 31.02 144.589 31.252 144.205C31.484 143.813 31.796 143.521 32.188 143.329C32.58 143.129 33.02 143.029 33.508 143.029C33.748 143.029 34.02 143.061 34.324 143.125L34.324 147.001C34.852 146.921 35.248 146.713 35.512 146.377C35.768 146.041 35.896 145.637 35.896 145.165C35.896 144.517 35.732 143.917 35.404 143.365L36.664 143.293C36.8 143.549 36.912 143.849 37 144.193C37.08 144.529 37.12 144.897 37.12 145.297ZM33.316 144.541C33.004 144.541 32.728 144.629 32.488 144.805C32.248 144.981 32.128 145.253 32.128 145.621C32.128 145.989 32.236 146.285 32.452 146.509C32.668 146.733 32.956 146.885 33.316 146.965L33.316 144.541ZM37.12 140.309C37.12 140.693 37.084 141.045 37.012 141.365C36.94 141.677 36.828 142.001 36.676 142.337L35.404 142.205C35.604 141.869 35.756 141.557 35.86 141.269C35.956 140.973 36.004 140.669 36.004 140.357C36.004 139.749 35.804 139.445 35.404 139.445C35.188 139.445 35.024 139.525 34.912 139.685C34.792 139.845 34.652 140.133 34.492 140.549C34.276 141.141 34.032 141.577 33.76 141.857C33.48 142.137 33.104 142.277 32.632 142.277C32.112 142.277 31.692 142.077 31.372 141.677C31.044 141.277 30.88 140.737 30.88 140.057C30.88 139.377 31.036 138.757 31.348 138.197L32.62 138.329C32.412 138.633 32.252 138.921 32.14 139.193C32.028 139.457 31.972 139.737 31.972 140.033C31.972 140.289 32.024 140.489 32.128 140.633C32.232 140.769 32.38 140.837 32.572 140.837C32.724 140.837 32.848 140.797 32.944 140.717C33.04 140.629 33.128 140.509 33.208 140.357C33.28 140.205 33.384 139.953 33.52 139.601C33.744 139.017 33.992 138.597 34.264 138.341C34.528 138.085 34.884 137.957 35.332 137.957C35.9 137.957 36.34 138.161 36.652 138.569C36.964 138.977 37.12 139.557 37.12 140.309Z" fill="black"/>
<path d="M56.7887 306.672C57.066 306.256 57.2687 305.912 57.3967 305.64C57.5247 305.368 57.5887 305.12 57.5887 304.896C57.5887 304.619 57.5087 304.4 57.3487 304.24C57.194 304.075 56.9834 303.992 56.7167 303.992C56.2207 303.992 55.7674 304.203 55.3567 304.624L55.2607 303.824C55.4634 303.664 55.6954 303.533 55.9567 303.432C56.218 303.331 56.498 303.28 56.7967 303.28C57.2927 303.28 57.6767 303.424 57.9487 303.712C58.2207 304 58.3567 304.368 58.3567 304.816C58.3567 305.168 58.2874 305.501 58.1487 305.816C58.0154 306.131 57.786 306.533 57.4607 307.024L56.6127 308.304H58.5727V308.992H55.2607L56.7887 306.672Z" fill="black"/>
<path d="M107.424 333.552C107.424 333.984 107.28 334.333 106.992 334.6C106.709 334.861 106.291 335.024 105.736 335.088L105.792 336.152H105.168L105.224 335.112C104.899 335.112 104.565 335.075 104.224 335C103.888 334.931 103.616 334.848 103.408 334.752L103.512 333.944C103.779 334.072 104.08 334.184 104.416 334.28C104.752 334.376 105.085 334.424 105.416 334.424C105.789 334.424 106.077 334.357 106.28 334.224C106.488 334.085 106.592 333.88 106.592 333.608C106.592 333.405 106.539 333.237 106.432 333.104C106.331 332.965 106.179 332.851 105.976 332.76C105.779 332.664 105.501 332.563 105.144 332.456C104.781 332.349 104.48 332.235 104.24 332.112C104 331.989 103.805 331.821 103.656 331.608C103.512 331.395 103.44 331.125 103.44 330.8C103.44 330.368 103.595 330.019 103.904 329.752C104.219 329.48 104.661 329.328 105.232 329.296L105.168 328.248H105.792L105.728 329.296C106.016 329.312 106.288 329.355 106.544 329.424C106.8 329.493 107.024 329.576 107.216 329.672L107.136 330.48C106.837 330.304 106.549 330.176 106.272 330.096C105.995 330.016 105.707 329.976 105.408 329.976C105.061 329.976 104.784 330.04 104.576 330.168C104.373 330.296 104.272 330.493 104.272 330.76C104.272 330.941 104.317 331.091 104.408 331.208C104.504 331.325 104.64 331.427 104.816 331.512C104.992 331.592 105.237 331.68 105.552 331.776C106.181 331.968 106.651 332.197 106.96 332.464C107.269 332.725 107.424 333.088 107.424 333.552ZM108.904 330.496C108.728 330.64 108.576 330.747 108.448 330.816C108.325 330.885 108.2 330.941 108.072 330.984L107.944 330.272C108.168 330.197 108.389 330.08 108.608 329.92C108.832 329.755 109.003 329.581 109.12 329.4H109.64V335H108.904V330.496ZM110.737 332.168H113.217V332.856H110.737V332.168ZM115.752 331.464C116.141 331.464 116.477 331.541 116.76 331.696C117.043 331.851 117.259 332.064 117.408 332.336C117.557 332.608 117.632 332.917 117.632 333.264C117.632 333.637 117.544 333.963 117.368 334.24C117.197 334.517 116.96 334.733 116.656 334.888C116.357 335.037 116.019 335.112 115.64 335.112C115.352 335.112 115.069 335.075 114.792 335C114.52 334.925 114.283 334.821 114.08 334.688L114.264 333.984C114.493 334.112 114.712 334.211 114.92 334.28C115.128 334.344 115.355 334.376 115.6 334.376C115.957 334.376 116.245 334.275 116.464 334.072C116.688 333.869 116.8 333.6 116.8 333.264C116.8 332.891 116.683 332.603 116.448 332.4C116.213 332.192 115.899 332.088 115.504 332.088C115.168 332.088 114.792 332.141 114.376 332.248L114.72 329.4H117.36L117.328 330.12H115.344L115.176 331.504C115.379 331.477 115.571 331.464 115.752 331.464Z" fill="black"/>
<path d="M167.58 333.552C167.58 333.984 167.436 334.333 167.148 334.6C166.866 334.861 166.447 335.024 165.892 335.088L165.948 336.152H165.324L165.38 335.112C165.055 335.112 164.722 335.075 164.38 335C164.044 334.931 163.772 334.848 163.564 334.752L163.668 333.944C163.935 334.072 164.236 334.184 164.572 334.28C164.908 334.376 165.242 334.424 165.572 334.424C165.946 334.424 166.234 334.357 166.436 334.224C166.644 334.085 166.748 333.88 166.748 333.608C166.748 333.405 166.695 333.237 166.588 333.104C166.487 332.965 166.335 332.851 166.132 332.76C165.935 332.664 165.658 332.563 165.3 332.456C164.938 332.349 164.636 332.235 164.396 332.112C164.156 331.989 163.962 331.821 163.812 331.608C163.668 331.395 163.596 331.125 163.596 330.8C163.596 330.368 163.751 330.019 164.06 329.752C164.375 329.48 164.818 329.328 165.388 329.296L165.324 328.248H165.948L165.884 329.296C166.172 329.312 166.444 329.355 166.7 329.424C166.956 329.493 167.18 329.576 167.372 329.672L167.292 330.48C166.994 330.304 166.706 330.176 166.428 330.096C166.151 330.016 165.863 329.976 165.564 329.976C165.218 329.976 164.94 330.04 164.732 330.168C164.53 330.296 164.428 330.493 164.428 330.76C164.428 330.941 164.474 331.091 164.564 331.208C164.66 331.325 164.796 331.427 164.972 331.512C165.148 331.592 165.394 331.68 165.708 331.776C166.338 331.968 166.807 332.197 167.116 332.464C167.426 332.725 167.58 333.088 167.58 333.552ZM170.364 331.64C170.684 331.64 170.969 331.715 171.22 331.864C171.476 332.008 171.673 332.211 171.812 332.472C171.956 332.728 172.028 333.016 172.028 333.336C172.028 333.677 171.951 333.984 171.796 334.256C171.641 334.523 171.425 334.733 171.148 334.888C170.871 335.037 170.551 335.112 170.188 335.112C169.607 335.112 169.151 334.923 168.82 334.544C168.489 334.165 168.324 333.661 168.324 333.032C168.324 332.477 168.444 331.955 168.684 331.464C168.924 330.968 169.231 330.536 169.604 330.168C169.983 329.8 170.383 329.507 170.804 329.288L171.324 329.776C170.844 330.016 170.417 330.328 170.044 330.712C169.676 331.091 169.412 331.512 169.252 331.976C169.551 331.752 169.921 331.64 170.364 331.64ZM170.188 334.456C170.503 334.456 170.756 334.352 170.948 334.144C171.145 333.936 171.244 333.675 171.244 333.36C171.244 333.056 171.145 332.803 170.948 332.6C170.756 332.397 170.503 332.296 170.188 332.296C169.873 332.296 169.617 332.397 169.42 332.6C169.223 332.803 169.124 333.059 169.124 333.368C169.124 333.688 169.22 333.949 169.412 334.152C169.609 334.355 169.868 334.456 170.188 334.456ZM172.831 332.168H175.311V332.856H172.831V332.168ZM176.88 330.496C176.704 330.64 176.552 330.747 176.424 330.816C176.302 330.885 176.176 330.941 176.048 330.984L175.92 330.272C176.144 330.197 176.366 330.08 176.584 329.92C176.808 329.755 176.979 329.581 177.096 329.4H177.616V335H176.88V330.496ZM181.05 335.112C180.564 335.112 180.143 334.987 179.786 334.736C179.434 334.485 179.162 334.136 178.97 333.688C178.783 333.24 178.69 332.728 178.69 332.152C178.69 331.581 178.788 331.08 178.986 330.648C179.188 330.216 179.468 329.883 179.826 329.648C180.183 329.408 180.591 329.288 181.05 329.288C181.519 329.288 181.932 329.408 182.29 329.648C182.647 329.883 182.922 330.216 183.114 330.648C183.311 331.08 183.41 331.581 183.41 332.152C183.41 332.728 183.316 333.24 183.13 333.688C182.943 334.136 182.671 334.485 182.314 334.736C181.956 334.987 181.535 335.112 181.05 335.112ZM181.05 334.424C181.546 334.424 181.927 334.227 182.194 333.832C182.466 333.437 182.602 332.877 182.602 332.152C182.602 331.437 182.463 330.896 182.186 330.528C181.914 330.16 181.535 329.976 181.05 329.976C180.586 329.976 180.21 330.163 179.922 330.536C179.639 330.909 179.498 331.448 179.498 332.152C179.498 332.877 179.631 333.437 179.898 333.832C180.17 334.227 180.554 334.424 181.05 334.424Z" fill="black"/>
<path d="M230.873 333.552C230.873 333.984 230.729 334.333 230.441 334.6C230.159 334.861 229.74 335.024 229.185 335.088L229.241 336.152H228.617L228.673 335.112C228.348 335.112 228.015 335.075 227.673 335C227.337 334.931 227.065 334.848 226.857 334.752L226.961 333.944C227.228 334.072 227.529 334.184 227.865 334.28C228.201 334.376 228.535 334.424 228.865 334.424C229.239 334.424 229.527 334.357 229.729 334.224C229.937 334.085 230.041 333.88 230.041 333.608C230.041 333.405 229.988 333.237 229.881 333.104C229.78 332.965 229.628 332.851 229.425 332.76C229.228 332.664 228.951 332.563 228.593 332.456C228.231 332.349 227.929 332.235 227.689 332.112C227.449 331.989 227.255 331.821 227.105 331.608C226.961 331.395 226.889 331.125 226.889 330.8C226.889 330.368 227.044 330.019 227.353 329.752C227.668 329.48 228.111 329.328 228.681 329.296L228.617 328.248H229.241L229.177 329.296C229.465 329.312 229.737 329.355 229.993 329.424C230.249 329.493 230.473 329.576 230.665 329.672L230.585 330.48C230.287 330.304 229.999 330.176 229.721 330.096C229.444 330.016 229.156 329.976 228.857 329.976C228.511 329.976 228.233 330.04 228.025 330.168C227.823 330.296 227.721 330.493 227.721 330.76C227.721 330.941 227.767 331.091 227.857 331.208C227.953 331.325 228.089 331.427 228.265 331.512C228.441 331.592 228.687 331.68 229.001 331.776C229.631 331.968 230.1 332.197 230.409 332.464C230.719 332.725 230.873 333.088 230.873 333.552ZM232.353 330.496C232.177 330.64 232.025 330.747 231.897 330.816C231.774 330.885 231.649 330.941 231.521 330.984L231.393 330.272C231.617 330.197 231.838 330.08 232.057 329.92C232.281 329.755 232.452 329.581 232.569 329.4H233.089V335H232.353V330.496ZM234.962 330.496C234.786 330.64 234.634 330.747 234.506 330.816C234.384 330.885 234.258 330.941 234.13 330.984L234.002 330.272C234.226 330.197 234.448 330.08 234.666 329.92C234.89 329.755 235.061 329.581 235.178 329.4H235.698V335H234.962V330.496ZM236.796 332.168H239.276V332.856H236.796V332.168ZM240.845 330.496C240.669 330.64 240.517 330.747 240.389 330.816C240.267 330.885 240.141 330.941 240.013 330.984L239.885 330.272C240.109 330.197 240.331 330.08 240.549 329.92C240.773 329.755 240.944 329.581 241.061 329.4H241.581V335H240.845V330.496ZM244.303 331.464C244.692 331.464 245.028 331.541 245.311 331.696C245.593 331.851 245.809 332.064 245.959 332.336C246.108 332.608 246.183 332.917 246.183 333.264C246.183 333.637 246.095 333.963 245.919 334.24C245.748 334.517 245.511 334.733 245.207 334.888C244.908 335.037 244.569 335.112 244.191 335.112C243.903 335.112 243.62 335.075 243.343 335C243.071 334.925 242.833 334.821 242.631 334.688L242.815 333.984C243.044 334.112 243.263 334.211 243.471 334.28C243.679 334.344 243.905 334.376 244.151 334.376C244.508 334.376 244.796 334.275 245.015 334.072C245.239 333.869 245.351 333.6 245.351 333.264C245.351 332.891 245.233 332.603 244.999 332.4C244.764 332.192 244.449 332.088 244.055 332.088C243.719 332.088 243.343 332.141 242.927 332.248L243.271 329.4H245.911L245.879 330.12H243.895L243.727 331.504C243.929 331.477 244.121 331.464 244.303 331.464Z" fill="black"/>
<path d="M57.6764 242.936C57.9431 243.08 58.1484 243.28 58.2924 243.536C58.4418 243.787 58.5164 244.075 58.5164 244.4C58.5164 244.736 58.4364 245.035 58.2764 245.296C58.1164 245.552 57.8898 245.752 57.5964 245.896C57.3031 246.04 56.9618 246.112 56.5724 246.112C56.1778 246.112 55.8338 246.04 55.5404 245.896C55.2471 245.752 55.0204 245.552 54.8604 245.296C54.7058 245.035 54.6284 244.736 54.6284 244.4C54.6284 244.075 54.7031 243.784 54.8524 243.528C55.0018 243.272 55.2098 243.072 55.4764 242.928C55.2898 242.795 55.1431 242.632 55.0364 242.44C54.9351 242.243 54.8844 242.029 54.8844 241.8C54.8844 241.539 54.9431 241.293 55.0604 241.064C55.1831 240.835 55.3698 240.648 55.6204 240.504C55.8764 240.36 56.1938 240.288 56.5724 240.288C56.9511 240.288 57.2631 240.36 57.5084 240.504C57.7591 240.648 57.9404 240.835 58.0524 241.064C58.1698 241.293 58.2284 241.539 58.2284 241.8C58.2284 242.04 58.1804 242.256 58.0844 242.448C57.9884 242.64 57.8524 242.803 57.6764 242.936ZM56.5724 240.976C56.2791 240.976 56.0498 241.051 55.8844 241.2C55.7244 241.349 55.6444 241.549 55.6444 241.8C55.6444 242.035 55.7271 242.232 55.8924 242.392C56.0578 242.552 56.2844 242.632 56.5724 242.632C56.8551 242.632 57.0738 242.555 57.2284 242.4C57.3884 242.24 57.4684 242.04 57.4684 241.8C57.4684 241.549 57.3911 241.349 57.2364 241.2C57.0818 241.051 56.8604 240.976 56.5724 240.976ZM56.5724 245.424C56.9351 245.424 57.2178 245.333 57.4204 245.152C57.6284 244.965 57.7324 244.715 57.7324 244.4C57.7324 244.075 57.6284 243.811 57.4204 243.608C57.2178 243.4 56.9351 243.296 56.5724 243.296C56.2098 243.296 55.9244 243.4 55.7164 243.608C55.5138 243.811 55.4124 244.075 55.4124 244.4C55.4124 244.715 55.5138 244.965 55.7164 245.152C55.9244 245.333 56.2098 245.424 56.5724 245.424Z" fill="black"/>
<path d="M52.9976 178.496C52.8216 178.64 52.6696 178.747 52.5416 178.816C52.419 178.885 52.2936 178.941 52.1656 178.984L52.0376 178.272C52.2616 178.197 52.483 178.08 52.7016 177.92C52.9256 177.755 53.0963 177.581 53.2136 177.4H53.7336V183H52.9976V178.496ZM58.783 180.904V181.552H58.063V183H57.295V181.552H54.535L57.511 177.4H58.063V180.904H58.783ZM57.295 180.904V178.816L55.807 180.904H57.295Z" fill="black"/>
<path d="M51.2028 117.672C51.4801 117.256 51.6828 116.912 51.8108 116.64C51.9388 116.368 52.0028 116.12 52.0028 115.896C52.0028 115.619 51.9228 115.4 51.7628 115.24C51.6081 115.075 51.3974 114.992 51.1308 114.992C50.6348 114.992 50.1814 115.203 49.7708 115.624L49.6748 114.824C49.8774 114.664 50.1094 114.533 50.3708 114.432C50.6321 114.331 50.9121 114.28 51.2108 114.28C51.7068 114.28 52.0908 114.424 52.3628 114.712C52.6348 115 52.7708 115.368 52.7708 115.816C52.7708 116.168 52.7014 116.501 52.5628 116.816C52.4294 117.131 52.2001 117.533 51.8748 118.024L51.0268 119.304H52.9868V119.992H49.6748L51.2028 117.672ZM56.2061 120.112C55.7207 120.112 55.2994 119.987 54.9421 119.736C54.5901 119.485 54.3181 119.136 54.1261 118.688C53.9394 118.24 53.8461 117.728 53.8461 117.152C53.8461 116.581 53.9447 116.08 54.1421 115.648C54.3447 115.216 54.6247 114.883 54.9821 114.648C55.3394 114.408 55.7474 114.288 56.2061 114.288C56.6754 114.288 57.0887 114.408 57.4461 114.648C57.8034 114.883 58.0781 115.216 58.2701 115.648C58.4674 116.08 58.5661 116.581 58.5661 117.152C58.5661 117.728 58.4727 118.24 58.2861 118.688C58.0994 119.136 57.8274 119.485 57.4701 119.736C57.1127 119.987 56.6914 120.112 56.2061 120.112ZM56.2061 119.424C56.7021 119.424 57.0834 119.227 57.3501 118.832C57.6221 118.437 57.7581 117.877 57.7581 117.152C57.7581 116.437 57.6194 115.896 57.3421 115.528C57.0701 115.16 56.6914 114.976 56.2061 114.976C55.7421 114.976 55.3661 115.163 55.0781 115.536C54.7954 115.909 54.6541 116.448 54.6541 117.152C54.6541 117.877 54.7874 118.437 55.0541 118.832C55.3261 119.227 55.7101 119.424 56.2061 119.424Z" fill="black"/>
<path d="M58.783 285.904V286.552H58.063V288H57.295V286.552H54.535L57.511 282.4H58.063V285.904H58.783ZM57.295 285.904V283.816L55.807 285.904H57.295Z" fill="black"/>
<path d="M52.0367 220.496C51.8607 220.64 51.7087 220.747 51.5807 220.816C51.458 220.885 51.3327 220.941 51.2047 220.984L51.0767 220.272C51.3007 220.197 51.522 220.08 51.7407 219.92C51.9647 219.755 52.1354 219.581 52.2527 219.4H52.7727V225H52.0367V220.496ZM56.2061 225.112C55.7207 225.112 55.2994 224.987 54.9421 224.736C54.5901 224.485 54.3181 224.136 54.1261 223.688C53.9394 223.24 53.8461 222.728 53.8461 222.152C53.8461 221.581 53.9447 221.08 54.1421 220.648C54.3447 220.216 54.6247 219.883 54.9821 219.648C55.3394 219.408 55.7474 219.288 56.2061 219.288C56.6754 219.288 57.0887 219.408 57.4461 219.648C57.8034 219.883 58.0781 220.216 58.2701 220.648C58.4674 221.08 58.5661 221.581 58.5661 222.152C58.5661 222.728 58.4727 223.24 58.2861 223.688C58.0994 224.136 57.8274 224.485 57.4701 224.736C57.1127 224.987 56.6914 225.112 56.2061 225.112ZM56.2061 224.424C56.7021 224.424 57.0834 224.227 57.3501 223.832C57.6221 223.437 57.7581 222.877 57.7581 222.152C57.7581 221.437 57.6194 220.896 57.3421 220.528C57.0701 220.16 56.6914 219.976 56.2061 219.976C55.7421 219.976 55.3661 220.163 55.0781 220.536C54.7954 220.909 54.6541 221.448 54.6541 222.152C54.6541 222.877 54.7874 223.437 55.0541 223.832C55.3261 224.227 55.7101 224.424 56.2061 224.424Z" fill="black"/>
<path d="M53.0758 157.496C52.8998 157.64 52.7478 157.747 52.6198 157.816C52.4971 157.885 52.3718 157.941 52.2438 157.984L52.1158 157.272C52.3398 157.197 52.5611 157.08 52.7798 156.92C53.0038 156.755 53.1744 156.581 53.2918 156.4H53.8118V162H53.0758V157.496ZM56.9891 158.64C57.3091 158.64 57.5945 158.715 57.8451 158.864C58.1011 159.008 58.2985 159.211 58.4371 159.472C58.5811 159.728 58.6531 160.016 58.6531 160.336C58.6531 160.677 58.5758 160.984 58.4211 161.256C58.2665 161.523 58.0505 161.733 57.7731 161.888C57.4958 162.037 57.1758 162.112 56.8131 162.112C56.2318 162.112 55.7758 161.923 55.4451 161.544C55.1145 161.165 54.9491 160.661 54.9491 160.032C54.9491 159.477 55.0691 158.955 55.3091 158.464C55.5491 157.968 55.8558 157.536 56.2291 157.168C56.6078 156.8 57.0078 156.507 57.4291 156.288L57.9491 156.776C57.4691 157.016 57.0425 157.328 56.6691 157.712C56.3011 158.091 56.0371 158.512 55.8771 158.976C56.1758 158.752 56.5465 158.64 56.9891 158.64ZM56.8131 161.456C57.1278 161.456 57.3811 161.352 57.5731 161.144C57.7705 160.936 57.8691 160.675 57.8691 160.36C57.8691 160.056 57.7705 159.803 57.5731 159.6C57.3811 159.397 57.1278 159.296 56.8131 159.296C56.4985 159.296 56.2425 159.397 56.0451 159.6C55.8478 159.803 55.7491 160.059 55.7491 160.368C55.7491 160.688 55.8451 160.949 56.0371 161.152C56.2345 161.355 56.4931 161.456 56.8131 161.456Z" fill="black"/>
<path d="M52.5934 96.672C52.8707 96.256 53.0734 95.912 53.2014 95.64C53.3294 95.368 53.3934 95.12 53.3934 94.896C53.3934 94.6187 53.3134 94.4 53.1534 94.24C52.9987 94.0747 52.788 93.992 52.5214 93.992C52.0254 93.992 51.572 94.2027 51.1614 94.624L51.0654 93.824C51.268 93.664 51.5 93.5333 51.7614 93.432C52.0227 93.3307 52.3027 93.28 52.6014 93.28C53.0974 93.28 53.4814 93.424 53.7534 93.712C54.0254 94 54.1614 94.368 54.1614 94.816C54.1614 95.168 54.092 95.5013 53.9534 95.816C53.82 96.1307 53.5907 96.5333 53.2654 97.024L52.4174 98.304H54.3774V98.992H51.0654L52.5934 96.672ZM56.7887 96.672C57.066 96.256 57.2687 95.912 57.3967 95.64C57.5247 95.368 57.5887 95.12 57.5887 94.896C57.5887 94.6187 57.5087 94.4 57.3487 94.24C57.194 94.0747 56.9834 93.992 56.7167 93.992C56.2207 93.992 55.7674 94.2027 55.3567 94.624L55.2607 93.824C55.4634 93.664 55.6954 93.5333 55.9567 93.432C56.218 93.3307 56.498 93.28 56.7967 93.28C57.2927 93.28 57.6767 93.424 57.9487 93.712C58.2207 94 58.3567 94.368 58.3567 94.816C58.3567 95.168 58.2874 95.5013 58.1487 95.816C58.0154 96.1307 57.786 96.5333 57.4607 97.024L56.6127 98.304H58.5727V98.992H55.2607L56.7887 96.672Z" fill="black"/>
<path d="M56.9891 263.64C57.3091 263.64 57.5945 263.715 57.8451 263.864C58.1011 264.008 58.2985 264.211 58.4371 264.472C58.5811 264.728 58.6531 265.016 58.6531 265.336C58.6531 265.677 58.5758 265.984 58.4211 266.256C58.2665 266.523 58.0505 266.733 57.7731 266.888C57.4958 267.037 57.1758 267.112 56.8131 267.112C56.2318 267.112 55.7758 266.923 55.4451 266.544C55.1145 266.165 54.9491 265.661 54.9491 265.032C54.9491 264.477 55.0691 263.955 55.3091 263.464C55.5491 262.968 55.8558 262.536 56.2291 262.168C56.6078 261.8 57.0078 261.507 57.4291 261.288L57.9491 261.776C57.4691 262.016 57.0425 262.328 56.6691 262.712C56.3011 263.091 56.0371 263.512 55.8771 263.976C56.1758 263.752 56.5465 263.64 56.9891 263.64ZM56.8131 266.456C57.1278 266.456 57.3811 266.352 57.5731 266.144C57.7705 265.936 57.8691 265.675 57.8691 265.36C57.8691 265.056 57.7705 264.803 57.5731 264.6C57.3811 264.397 57.1278 264.296 56.8131 264.296C56.4985 264.296 56.2425 264.397 56.0451 264.6C55.8478 264.803 55.7491 265.059 55.7491 265.368C55.7491 265.688 55.8451 265.949 56.0371 266.152C56.2345 266.355 56.4931 266.456 56.8131 266.456Z" fill="black"/>
<path d="M53.4273 199.496C53.2513 199.64 53.0993 199.747 52.9713 199.816C52.8486 199.885 52.7233 199.941 52.5953 199.984L52.4673 199.272C52.6913 199.197 52.9126 199.08 53.1313 198.92C53.3553 198.755 53.526 198.581 53.6433 198.4H54.1633V204H53.4273V199.496ZM56.7887 201.672C57.066 201.256 57.2687 200.912 57.3967 200.64C57.5247 200.368 57.5887 200.12 57.5887 199.896C57.5887 199.619 57.5087 199.4 57.3487 199.24C57.194 199.075 56.9834 198.992 56.7167 198.992C56.2207 198.992 55.7674 199.203 55.3567 199.624L55.2607 198.824C55.4634 198.664 55.6954 198.533 55.9567 198.432C56.218 198.331 56.498 198.28 56.7967 198.28C57.2927 198.28 57.6767 198.424 57.9487 198.712C58.2207 199 58.3567 199.368 58.3567 199.816C58.3567 200.168 58.2874 200.501 58.1487 200.816C58.0154 201.131 57.786 201.533 57.4607 202.024L56.6127 203.304H58.5727V203.992H55.2607L56.7887 201.672Z" fill="black"/>
<path d="M52.7711 136.496C52.5951 136.64 52.4431 136.747 52.3151 136.816C52.1924 136.885 52.0671 136.941 51.9391 136.984L51.8111 136.272C52.0351 136.197 52.2564 136.08 52.4751 135.92C52.6991 135.755 52.8697 135.581 52.9871 135.4H53.5071V141H52.7711V136.496ZM57.6764 137.936C57.9431 138.08 58.1484 138.28 58.2924 138.536C58.4418 138.787 58.5164 139.075 58.5164 139.4C58.5164 139.736 58.4364 140.035 58.2764 140.296C58.1164 140.552 57.8898 140.752 57.5964 140.896C57.3031 141.04 56.9618 141.112 56.5724 141.112C56.1778 141.112 55.8338 141.04 55.5404 140.896C55.2471 140.752 55.0204 140.552 54.8604 140.296C54.7058 140.035 54.6284 139.736 54.6284 139.4C54.6284 139.075 54.7031 138.784 54.8524 138.528C55.0018 138.272 55.2098 138.072 55.4764 137.928C55.2898 137.795 55.1431 137.632 55.0364 137.44C54.9351 137.243 54.8844 137.029 54.8844 136.8C54.8844 136.539 54.9431 136.293 55.0604 136.064C55.1831 135.835 55.3698 135.648 55.6204 135.504C55.8764 135.36 56.1938 135.288 56.5724 135.288C56.9511 135.288 57.2631 135.36 57.5084 135.504C57.7591 135.648 57.9404 135.835 58.0524 136.064C58.1698 136.293 58.2284 136.539 58.2284 136.8C58.2284 137.04 58.1804 137.256 58.0844 137.448C57.9884 137.64 57.8524 137.803 57.6764 137.936ZM56.5724 135.976C56.2791 135.976 56.0498 136.051 55.8844 136.2C55.7244 136.349 55.6444 136.549 55.6444 136.8C55.6444 137.035 55.7271 137.232 55.8924 137.392C56.0578 137.552 56.2844 137.632 56.5724 137.632C56.8551 137.632 57.0738 137.555 57.2284 137.4C57.3884 137.24 57.4684 137.04 57.4684 136.8C57.4684 136.549 57.3911 136.349 57.2364 136.2C57.0818 136.051 56.8604 135.976 56.5724 135.976ZM56.5724 140.424C56.9351 140.424 57.2178 140.333 57.4204 140.152C57.6284 139.965 57.7324 139.715 57.7324 139.4C57.7324 139.075 57.6284 138.811 57.4204 138.608C57.2178 138.4 56.9351 138.296 56.5724 138.296C56.2098 138.296 55.9244 138.4 55.7164 138.608C55.5138 138.811 55.4124 139.075 55.4124 139.4C55.4124 139.715 55.5138 139.965 55.7164 140.152C55.9244 140.333 56.2098 140.424 56.5724 140.424Z" fill="black"/>
<path d="M52.1637 75.672C52.441 75.256 52.6437 74.912 52.7717 74.64C52.8997 74.368 52.9637 74.12 52.9637 73.896C52.9637 73.6187 52.8837 73.4 52.7237 73.24C52.569 73.0747 52.3584 72.992 52.0917 72.992C51.5957 72.992 51.1424 73.2027 50.7317 73.624L50.6357 72.824C50.8384 72.664 51.0704 72.5333 51.3317 72.432C51.593 72.3307 51.873 72.28 52.1717 72.28C52.6677 72.28 53.0517 72.424 53.3237 72.712C53.5957 73 53.7317 73.368 53.7317 73.816C53.7317 74.168 53.6624 74.5013 53.5237 74.816C53.3904 75.1307 53.161 75.5333 52.8357 76.024L51.9877 77.304H53.9477V77.992H50.6357L52.1637 75.672ZM58.783 75.904V76.552H58.063V78H57.295V76.552H54.535L57.511 72.4H58.063V75.904H58.783ZM57.295 75.904V73.816L55.807 75.904H57.295Z" fill="black"/>
<g filter="url(#filter1_dd)">
<path d="M94 227C94 222.582 97.5817 219 102 219H119C123.418 219 127 222.582 127 227V321H94V227Z" fill="white"/>
<path d="M95 227C95 223.134 98.134 220 102 220H119C122.866 220 126 223.134 126 227V320H95V227Z" stroke="#276DF6" stroke-width="2"/>
</g>
<g filter="url(#filter2_dd)">
<path d="M157 246C157 241.582 160.582 238 165 238H182C186.418 238 190 241.582 190 246V321H157V246Z" fill="white"/>
<path d="M158 246C158 242.134 161.134 239 165 239H182C185.866 239 189 242.134 189 246V320H158V246Z" stroke="#276DF6" stroke-width="2"/>
</g>
<g filter="url(#filter3_dd)">
<path d="M220 195C220 190.582 223.582 187 228 187H245C249.418 187 253 190.582 253 195V321H220V195Z" fill="white"/>
<path d="M221 195C221 191.134 224.134 188 228 188H245C248.866 188 252 191.134 252 195V320H221V195Z" stroke="#276DF6" stroke-width="2"/>
</g>
<path d="M125 227C125 223.686 122.314 221 119 221L102 221C98.6863 221 96 223.686 96 227L96 321L125 321L125 227Z" fill="#B6D7F4"/>
<path d="M188 246C188 242.686 185.314 240 182 240L165 240C161.686 240 159 242.686 159 246L159 321L188 321L188 246Z" fill="#B6D7F4"/>
<path d="M251 195C251 191.686 248.314 189 245 189L228 189C224.686 189 222 191.686 222 195L222 321L251 321L251 195Z" fill="#B6D7F4"/>
<path d="M301.183 226.428C301.583 226.644 301.895 226.94 302.119 227.316C302.343 227.692 302.455 228.116 302.455 228.588C302.455 229.092 302.335 229.54 302.095 229.932C301.855 230.324 301.511 230.628 301.063 230.844C300.615 231.06 300.095 231.168 299.503 231.168C298.903 231.168 298.379 231.06 297.931 230.844C297.491 230.628 297.151 230.324 296.911 229.932C296.671 229.54 296.551 229.092 296.551 228.588C296.551 228.108 296.663 227.684 296.887 227.316C297.119 226.94 297.439 226.644 297.847 226.428C297.559 226.228 297.335 225.98 297.175 225.684C297.015 225.38 296.935 225.052 296.935 224.7C296.935 224.308 297.027 223.94 297.211 223.596C297.395 223.252 297.679 222.972 298.063 222.756C298.447 222.54 298.927 222.432 299.503 222.432C300.079 222.432 300.555 222.54 300.931 222.756C301.307 222.972 301.583 223.252 301.759 223.596C301.935 223.94 302.023 224.308 302.023 224.7C302.023 225.06 301.951 225.388 301.807 225.684C301.663 225.98 301.455 226.228 301.183 226.428ZM299.503 223.632C299.119 223.632 298.819 223.732 298.603 223.932C298.387 224.124 298.279 224.384 298.279 224.712C298.279 225.024 298.387 225.284 298.603 225.492C298.827 225.7 299.127 225.804 299.503 225.804C299.879 225.804 300.167 225.7 300.367 225.492C300.575 225.284 300.679 225.024 300.679 224.712C300.679 224.384 300.575 224.124 300.367 223.932C300.167 223.732 299.879 223.632 299.503 223.632ZM299.503 229.848C299.983 229.848 300.359 229.728 300.631 229.488C300.903 229.24 301.039 228.908 301.039 228.492C301.039 228.1 300.899 227.78 300.619 227.532C300.347 227.284 299.975 227.16 299.503 227.16C299.031 227.16 298.655 227.284 298.375 227.532C298.103 227.78 297.967 228.1 297.967 228.492C297.967 228.908 298.103 229.24 298.375 229.488C298.647 229.728 299.023 229.848 299.503 229.848Z" fill="black"/>
<path d="M291.49 333.552C291.49 333.984 291.346 334.333 291.058 334.6C290.776 334.861 290.357 335.024 289.802 335.088L289.858 336.152H289.234L289.29 335.112C288.965 335.112 288.632 335.075 288.29 335C287.954 334.931 287.682 334.848 287.474 334.752L287.578 333.944C287.845 334.072 288.146 334.184 288.482 334.28C288.818 334.376 289.152 334.424 289.482 334.424C289.856 334.424 290.144 334.357 290.346 334.224C290.554 334.085 290.658 333.88 290.658 333.608C290.658 333.405 290.605 333.237 290.498 333.104C290.397 332.965 290.245 332.851 290.042 332.76C289.845 332.664 289.568 332.563 289.21 332.456C288.848 332.349 288.546 332.235 288.306 332.112C288.066 331.989 287.872 331.821 287.722 331.608C287.578 331.395 287.506 331.125 287.506 330.8C287.506 330.368 287.661 330.019 287.97 329.752C288.285 329.48 288.728 329.328 289.298 329.296L289.234 328.248H289.858L289.794 329.296C290.082 329.312 290.354 329.355 290.61 329.424C290.866 329.493 291.09 329.576 291.282 329.672L291.202 330.48C290.904 330.304 290.616 330.176 290.338 330.096C290.061 330.016 289.773 329.976 289.474 329.976C289.128 329.976 288.85 330.04 288.642 330.168C288.44 330.296 288.338 330.493 288.338 330.76C288.338 330.941 288.384 331.091 288.474 331.208C288.57 331.325 288.706 331.427 288.882 331.512C289.058 331.592 289.304 331.68 289.618 331.776C290.248 331.968 290.717 332.197 291.026 332.464C291.336 332.725 291.49 333.088 291.49 333.552ZM292.97 330.496C292.794 330.64 292.642 330.747 292.514 330.816C292.392 330.885 292.266 330.941 292.138 330.984L292.01 330.272C292.234 330.197 292.456 330.08 292.674 329.92C292.898 329.755 293.069 329.581 293.186 329.4H293.706V335H292.97V330.496ZM296.884 331.64C297.204 331.64 297.489 331.715 297.74 331.864C297.996 332.008 298.193 332.211 298.332 332.472C298.476 332.728 298.548 333.016 298.548 333.336C298.548 333.677 298.47 333.984 298.316 334.256C298.161 334.523 297.945 334.733 297.668 334.888C297.39 335.037 297.07 335.112 296.708 335.112C296.126 335.112 295.67 334.923 295.34 334.544C295.009 334.165 294.844 333.661 294.844 333.032C294.844 332.477 294.964 331.955 295.204 331.464C295.444 330.968 295.75 330.536 296.124 330.168C296.502 329.8 296.902 329.507 297.324 329.288L297.844 329.776C297.364 330.016 296.937 330.328 296.564 330.712C296.196 331.091 295.932 331.512 295.772 331.976C296.07 331.752 296.441 331.64 296.884 331.64ZM296.708 334.456C297.022 334.456 297.276 334.352 297.468 334.144C297.665 333.936 297.764 333.675 297.764 333.36C297.764 333.056 297.665 332.803 297.468 332.6C297.276 332.397 297.022 332.296 296.708 332.296C296.393 332.296 296.137 332.397 295.94 332.6C295.742 332.803 295.644 333.059 295.644 333.368C295.644 333.688 295.74 333.949 295.932 334.152C296.129 334.355 296.388 334.456 296.708 334.456ZM299.351 332.168H301.831V332.856H299.351V332.168ZM304.136 332.672C304.414 332.256 304.616 331.912 304.744 331.64C304.872 331.368 304.936 331.12 304.936 330.896C304.936 330.619 304.856 330.4 304.696 330.24C304.542 330.075 304.331 329.992 304.064 329.992C303.568 329.992 303.115 330.203 302.704 330.624L302.608 329.824C302.811 329.664 303.043 329.533 303.304 329.432C303.566 329.331 303.846 329.28 304.144 329.28C304.64 329.28 305.024 329.424 305.296 329.712C305.568 330 305.704 330.368 305.704 330.816C305.704 331.168 305.635 331.501 305.496 331.816C305.363 332.131 305.134 332.533 304.808 333.024L303.96 334.304H305.92V334.992H302.608L304.136 332.672ZM309.14 335.112C308.654 335.112 308.233 334.987 307.876 334.736C307.524 334.485 307.252 334.136 307.06 333.688C306.873 333.24 306.78 332.728 306.78 332.152C306.78 331.581 306.878 331.08 307.076 330.648C307.278 330.216 307.558 329.883 307.916 329.648C308.273 329.408 308.681 329.288 309.14 329.288C309.609 329.288 310.022 329.408 310.38 329.648C310.737 329.883 311.012 330.216 311.204 330.648C311.401 331.08 311.5 331.581 311.5 332.152C311.5 332.728 311.406 333.24 311.22 333.688C311.033 334.136 310.761 334.485 310.404 334.736C310.046 334.987 309.625 335.112 309.14 335.112ZM309.14 334.424C309.636 334.424 310.017 334.227 310.284 333.832C310.556 333.437 310.692 332.877 310.692 332.152C310.692 331.437 310.553 330.896 310.276 330.528C310.004 330.16 309.625 329.976 309.14 329.976C308.676 329.976 308.3 330.163 308.012 330.536C307.729 330.909 307.588 331.448 307.588 332.152C307.588 332.877 307.721 333.437 307.988 333.832C308.26 334.227 308.644 334.424 309.14 334.424Z" fill="black"/>
<g filter="url(#filter4_dd)">
<path d="M283 246C283 241.582 286.582 238 291 238H308C312.418 238 316 241.582 316 246V321H283V246Z" fill="white"/>
<path d="M284 246C284 242.134 287.134 239 291 239H308C311.866 239 315 242.134 315 246V320H284V246Z" stroke="#276DF6" stroke-width="2"/>
</g>
<path d="M314 246C314 242.686 311.314 240 308 240L291 240C287.686 240 285 242.686 285 246L285 321L314 321L314 246Z" fill="#B6D7F4"/>
<defs>
<filter id="filter0_dd" x="0" y="23" width="364" height="364" filterUnits="userSpaceOnUse" color-interpolation-filters="sRGB">
<feFlood flood-opacity="0" result="BackgroundImageFix"/>
<feColorMatrix in="SourceAlpha" type="matrix" values="0 0 0 0 0 0 0 0 0 0 0 0 0 0 0 0 0 0 127 0"/>
<feOffset dx="5" dy="5"/>
<feGaussianBlur stdDeviation="7.5"/>
<feColorMatrix type="matrix" values="0 0 0 0 0.652778 0 0 0 0 0.706536 0 0 0 0 0.783333 0 0 0 0.4 0"/>
<feBlend mode="normal" in2="BackgroundImageFix" result="effect1_dropShadow"/>
<feColorMatrix in="SourceAlpha" type="matrix" values="0 0 0 0 0 0 0 0 0 0 0 0 0 0 0 0 0 0 127 0"/>
<feOffset dx="-6" dy="-6"/>
<feGaussianBlur stdDeviation="7.5"/>
<feColorMatrix type="matrix" values="0 0 0 0 1 0 0 0 0 1 0 0 0 0 1 0 0 0 0.4 0"/>
<feBlend mode="normal" in2="effect1_dropShadow" result="effect2_dropShadow"/>
<feBlend mode="normal" in="SourceGraphic" in2="effect2_dropShadow" result="shape"/>
</filter>
<filter id="filter1_dd" x="73" y="198" width="74" height="143" filterUnits="userSpaceOnUse" color-interpolation-filters="sRGB">
<feFlood flood-opacity="0" result="BackgroundImageFix"/>
<feColorMatrix in="SourceAlpha" type="matrix" values="0 0 0 0 0 0 0 0 0 0 0 0 0 0 0 0 0 0 127 0"/>
<feOffset dx="5" dy="5"/>
<feGaussianBlur stdDeviation="7.5"/>
<feColorMatrix type="matrix" values="0 0 0 0 0.652778 0 0 0 0 0.706536 0 0 0 0 0.783333 0 0 0 0.4 0"/>
<feBlend mode="normal" in2="BackgroundImageFix" result="effect1_dropShadow"/>
<feColorMatrix in="SourceAlpha" type="matrix" values="0 0 0 0 0 0 0 0 0 0 0 0 0 0 0 0 0 0 127 0"/>
<feOffset dx="-6" dy="-6"/>
<feGaussianBlur stdDeviation="7.5"/>
<feColorMatrix type="matrix" values="0 0 0 0 1 0 0 0 0 1 0 0 0 0 1 0 0 0 0.4 0"/>
<feBlend mode="normal" in2="effect1_dropShadow" result="effect2_dropShadow"/>
<feBlend mode="normal" in="SourceGraphic" in2="effect2_dropShadow" result="shape"/>
</filter>
<filter id="filter2_dd" x="136" y="217" width="74" height="124" filterUnits="userSpaceOnUse" color-interpolation-filters="sRGB">
<feFlood flood-opacity="0" result="BackgroundImageFix"/>
<feColorMatrix in="SourceAlpha" type="matrix" values="0 0 0 0 0 0 0 0 0 0 0 0 0 0 0 0 0 0 127 0"/>
<feOffset dx="5" dy="5"/>
<feGaussianBlur stdDeviation="7.5"/>
<feColorMatrix type="matrix" values="0 0 0 0 0.652778 0 0 0 0 0.706536 0 0 0 0 0.783333 0 0 0 0.4 0"/>
<feBlend mode="normal" in2="BackgroundImageFix" result="effect1_dropShadow"/>
<feColorMatrix in="SourceAlpha" type="matrix" values="0 0 0 0 0 0 0 0 0 0 0 0 0 0 0 0 0 0 127 0"/>
<feOffset dx="-6" dy="-6"/>
<feGaussianBlur stdDeviation="7.5"/>
<feColorMatrix type="matrix" values="0 0 0 0 1 0 0 0 0 1 0 0 0 0 1 0 0 0 0.4 0"/>
<feBlend mode="normal" in2="effect1_dropShadow" result="effect2_dropShadow"/>
<feBlend mode="normal" in="SourceGraphic" in2="effect2_dropShadow" result="shape"/>
</filter>
<filter id="filter3_dd" x="199" y="166" width="74" height="175" filterUnits="userSpaceOnUse" color-interpolation-filters="sRGB">
<feFlood flood-opacity="0" result="BackgroundImageFix"/>
<feColorMatrix in="SourceAlpha" type="matrix" values="0 0 0 0 0 0 0 0 0 0 0 0 0 0 0 0 0 0 127 0"/>
<feOffset dx="5" dy="5"/>
<feGaussianBlur stdDeviation="7.5"/>
<feColorMatrix type="matrix" values="0 0 0 0 0.652778 0 0 0 0 0.706536 0 0 0 0 0.783333 0 0 0 0.4 0"/>
<feBlend mode="normal" in2="BackgroundImageFix" result="effect1_dropShadow"/>
<feColorMatrix in="SourceAlpha" type="matrix" values="0 0 0 0 0 0 0 0 0 0 0 0 0 0 0 0 0 0 127 0"/>
<feOffset dx="-6" dy="-6"/>
<feGaussianBlur stdDeviation="7.5"/>
<feColorMatrix type="matrix" values="0 0 0 0 1 0 0 0 0 1 0 0 0 0 1 0 0 0 0.4 0"/>
<feBlend mode="normal" in2="effect1_dropShadow" result="effect2_dropShadow"/>
<feBlend mode="normal" in="SourceGraphic" in2="effect2_dropShadow" result="shape"/>
</filter>
<filter id="filter4_dd" x="262" y="217" width="74" height="124" filterUnits="userSpaceOnUse" color-interpolation-filters="sRGB">
<feFlood flood-opacity="0" result="BackgroundImageFix"/>
<feColorMatrix in="SourceAlpha" type="matrix" values="0 0 0 0 0 0 0 0 0 0 0 0 0 0 0 0 0 0 127 0"/>
<feOffset dx="5" dy="5"/>
<feGaussianBlur stdDeviation="7.5"/>
<feColorMatrix type="matrix" values="0 0 0 0 0.652778 0 0 0 0 0.706536 0 0 0 0 0.783333 0 0 0 0.4 0"/>
<feBlend mode="normal" in2="BackgroundImageFix" result="effect1_dropShadow"/>
<feColorMatrix in="SourceAlpha" type="matrix" values="0 0 0 0 0 0 0 0 0 0 0 0 0 0 0 0 0 0 127 0"/>
<feOffset dx="-6" dy="-6"/>
<feGaussianBlur stdDeviation="7.5"/>
<feColorMatrix type="matrix" values="0 0 0 0 1 0 0 0 0 1 0 0 0 0 1 0 0 0 0.4 0"/>
<feBlend mode="normal" in2="effect1_dropShadow" result="effect2_dropShadow"/>
<feBlend mode="normal" in="SourceGraphic" in2="effect2_dropShadow" result="shape"/>
</filter>
<linearGradient id="paint0_linear" x1="21" y1="44" x2="345.495" y2="365.491" gradientUnits="userSpaceOnUse">
<stop stop-color="#FEFEFF"/>
<stop offset="1" stop-color="#E1E7F0"/>
</linearGradient>
</defs>
</svg>
